<svg xmlns="http://www.w3.org/2000/svg" viewBox="0 0 32 32">
  <rect width="32" height="32" rx="7" fill="#41543A"/>
  <g transform="translate(-4.16 2.77) scale(0.14)">
    <path fill="#ECE3D0" d="M70 46 C 79 39, 87 35, 93 35 C 101 35, 105 42, 102 50 C 98 57, 95 65, 96 75 C 97 85, 100 95, 106 104 C 112 108, 124 110, 142 111 C 162 112, 184 113, 200 109 L 212 103 C 211 120, 202 135, 186 143 C 160 154, 124 153, 106 141 C 96 133, 92 122, 94 112 C 95 104, 93.5 96, 91 88 C 89 78, 87.5 66, 86 56 C 84.5 51, 82 48, 78 46.5 C 75 45.5, 72 45.5, 70 46 Z"/>
    <circle cx="93" cy="42" r="4" fill="#41543A"/>
    <path d="M118 136 C 132 118, 158 110, 184 116" fill="none" stroke="#41543A" stroke-width="7" stroke-linecap="round" opacity="0.45"/>
  </g>
  <g fill="none" stroke="#ECE3D0" stroke-linecap="round" opacity="0.8">
    <path d="M5.5 26 C 11 24.9, 21 27.1, 26.5 26" stroke-width="1.2"/>
    <path d="M9 28.4 C 14 27.5, 19 29.2, 23 28.4" stroke-width="1"/>
  </g>
</svg>
